# xmcd
#
# Track frame offsets:
#	150
#	9251
#	28822
#	41075
#	54559
#	66451
#	84728
#	99019
#	112834
#	121933
#	141504
#	153757
#	167241
#	179138
#	197415
#	211706
#	236762
#
# Disc length: 3176 seconds
#
# Revision: 1
# Processed by: cddbd v1.5.2PL0 Copyright (c) Steve Scherf et al.
# Submitted via: audiograbber 1.83.01
#
DISCID=e40c6611
DTITLE=Hal Leonard - Blues5 Shuffle Blues
DYEAR=1900
DGENRE=Play-Along
TTITLE0=Beautician Blues
TTITLE1=The Blues is Alright
TTITLE2=Bright Light, Big City
TTITLE3=Further on Up the Road
TTITLE4=I'm Tore Down
TTITLE5=Let Me Love You Baby
TTITLE6=Look At Little Sister
TTITLE7=Rock Me Baby
TTITLE8=Beautician Blues Split
TTITLE9=The Blues is Alright Split
TTITLE10=Bright Light, Big City Split
TTITLE11=Further on Up the Road Split
TTITLE12=I'm Tore Down Split
TTITLE13=Let Me Love You Baby Split
TTITLE14=Look At Little Sister Split
TTITLE15=Rock Me Baby Split
TTITLE16=Dataraita
EXTD=
EXTT0=
EXTT1=
EXTT2=
EXTT3=
EXTT4=
EXTT5=
EXTT6=
EXTT7=
EXTT8=
EXTT9=
EXTT10=
EXTT11=
EXTT12=
EXTT13=
EXTT14=
EXTT15=
EXTT16=
PLAYORDER=
